<svg xmlns="http://www.w3.org/2000/svg" width="512" height="512"><path fill="#C02F91" d="m112.116-.267 3.873-.014c3.519-.012 7.037-.012 10.556-.01 3.806 0 7.613-.01 11.42-.02q11.17-.023 22.343-.023 9.09-.002 18.181-.012a46539 46539 0 0 1 57.264-.024c15.021 0 30.042-.019 45.063-.047Q304-.46 327.183-.457c8.665 0 17.329-.005 25.993-.027q11.07-.029 22.14-.009c3.757.006 7.514.007 11.271-.01C419.047-.647 447.908 5.084 473 27l2.066 1.668C495.643 45.621 508.438 72.939 512 99c.269 4.374.279 8.734.267 13.116l.014 3.873c.012 3.519.012 7.037.01 10.556 0 3.806.01 7.613.02 11.42q.023 11.17.023 22.343.001 9.09.012 18.181.026 25.823.025 51.644v5.62c-.001 15.021.018 30.042.046 45.063q.043 23.184.04 46.367c0 8.665.005 17.329.027 25.993q.029 11.07.009 22.14c-.006 3.757-.007 7.514.01 11.271.143 32.46-5.588 61.321-27.503 86.413l-1.668 2.066C466.379 495.643 439.061 508.438 413 512c-4.374.269-8.734.279-13.116.267l-3.873.014c-3.519.012-7.037.012-10.556.01-3.806 0-7.613.01-11.42.02q-11.17.023-22.343.023-9.09.001-18.181.012-25.823.026-51.644.025h-5.62c-15.021-.001-30.042.018-45.063.046q-23.184.043-46.367.04c-8.665 0-17.329.005-25.993.027q-11.07.029-22.14.009c-3.757-.006-7.514-.007-11.271.01-32.46.143-61.321-5.588-86.413-27.503l-2.066-1.668C16.357 466.379 3.562 439.061 0 413c-.269-4.374-.279-8.734-.267-13.116l-.014-3.873c-.012-3.519-.012-7.037-.01-10.556 0-3.806-.01-7.613-.02-11.42q-.023-11.17-.023-22.343-.002-9.09-.012-18.181-.026-25.823-.025-51.644v-5.62c.001-15.021-.018-30.042-.046-45.063Q-.46 208-.457 184.817c0-8.665-.005-17.329-.027-25.993q-.028-11.07-.009-22.14c.006-3.757.007-7.514-.01-11.271C-.647 92.953 5.084 64.092 27 39l1.668-2.066C48.57 12.777 81.386-.348 112.116-.267M69.258 77.93c-9.812 12.252-13.729 26.161-13.646 41.612l-.016 3.686c-.012 3.346-.01 6.691-.003 10.037.005 3.62-.008 7.241-.018 10.862a6717 6717 0 0 0-.013 21.243q.006 8.64-.002 17.279l-.003 2.49-.004 5.007c-.014 15.635-.009 31.27.003 46.905.01 14.28-.003 28.561-.027 42.842q-.037 22.033-.027 44.065c.003 8.237 0 16.473-.017 24.71q-.022 10.518.002 21.036c.009 3.573.011 7.145-.004 10.717-.092 23.071 1.654 40.883 18.275 58.4 12.704 12.35 28.3 17.66 45.784 17.567l3.686.016c3.346.012 6.691.01 10.037.003 3.62-.005 7.241.008 10.862.018 7.08.017 14.162.018 21.243.013a10602 10602 0 0 1 19.768.005l5.008.004c15.635.014 31.27.009 46.905-.003 14.28-.01 28.561.003 42.842.027q22.033.037 44.065.027 12.355-.006 24.71.017 10.518.022 21.036-.002c3.573-.009 7.145-.011 10.717.004 23.071.092 40.883-1.654 58.4-18.275 12.35-12.704 17.66-28.3 17.567-45.784l.016-3.686c.012-3.346.01-6.691.003-10.037-.005-3.62.008-7.241.018-10.862.017-7.08.018-14.162.013-21.243q-.006-8.64.002-17.279l.003-2.49.004-5.007c.014-15.635.009-31.27-.003-46.905-.01-14.28.003-28.561.027-42.842q.037-22.033.027-44.065-.007-12.355.017-24.71.022-10.518-.002-21.036c-.009-3.573-.011-7.145.004-10.717.092-23.071-1.654-40.883-18.275-58.4-12.704-12.35-28.3-17.66-45.784-17.567l-3.686-.016c-3.346-.012-6.691-.01-10.037-.003-3.62.005-7.241-.008-10.862-.018a6717 6717 0 0 0-21.243-.013q-8.64.006-17.279-.002l-2.49-.003-5.007-.004c-15.635-.014-31.27-.009-46.905.003-14.28.01-28.561-.003-42.842-.027q-22.033-.037-44.065-.027-12.355.006-24.71-.017-10.518-.022-21.036.002c-3.573.009-7.145.011-10.717-.004-25.249-.101-44.519 2.728-62.321 22.447"/><path fill="#E25160" d="m256.5 99.625 2.107.004c42.376.198 80.65 17.765 110.518 47.426 29.517 30.303 43.76 70.424 43.278 112.323-.776 43.328-19.8 81.362-50.356 111.552-28.714 26.092-66.488 40.566-105.235 40.382l-3.833-.017c-38.215-.491-71.603-15.105-100.479-39.545l-1.781-1.501c-5.766-4.961-8.868-8.45-9.719-16.249-2.423-5.663-6.546-13.396-12.246-16.043l-2.254-.644c-4.868-1.727-6.539-5.19-8.687-9.625-1.33-2.873-2.578-5.774-3.813-8.688q-.826-1.842-1.656-3.684c-3.003-6.994-5.219-14.012-7.094-21.378l-.602-2.359c-2.852-11.837-4.017-23.606-3.96-35.767l.014-3.827c.128-10.245 1.022-20 3.298-29.985l.488-2.2C110.035 195.6 121.402 172.511 138 154l1.378-1.573C169.032 118.632 211.58 99.48 256.5 99.625M193.813 200.25C183.763 212.129 175.83 227.39 174 243l-.402 3.383c-2.18 23.457 4.62 45.185 19.59 63.367 15.01 17.386 35.6 27.004 58.312 29.125 22.924.963 43.69-6.691 61.043-21.605 16.035-14.812 26.17-35.39 27.457-57.27l.125-2.062c.656-22.293-8.085-43.709-23.125-59.938-14.77-15.164-34.793-24.753-56-26l-2.062-.125c-25.043-.737-48.17 10.366-65.125 28.375"/><path d="m112.116-.267 3.873-.014c3.519-.012 7.037-.012 10.556-.01 3.806 0 7.613-.01 11.42-.02q11.17-.023 22.343-.023 9.09-.002 18.181-.012a46539 46539 0 0 1 57.264-.024c15.021 0 30.042-.019 45.063-.047Q304-.46 327.183-.457c8.665 0 17.329-.005 25.993-.027q11.07-.029 22.14-.009c3.757.006 7.514.007 11.271-.01C419.047-.647 447.908 5.084 473 27l2.066 1.668C495.643 45.621 508.438 72.939 512 99c.269 4.374.279 8.734.267 13.116l.014 3.873c.012 3.519.012 7.037.01 10.556 0 3.806.01 7.613.02 11.42q.023 11.17.023 22.343.001 9.09.012 18.181.026 25.823.025 51.644v5.62c-.001 15.021.018 30.042.046 45.063q.043 23.184.04 46.367c0 8.665.005 17.329.027 25.993q.029 11.07.009 22.14c-.006 3.757-.007 7.514.01 11.271.143 32.46-5.588 61.321-27.503 86.413l-1.668 2.066C466.379 495.643 439.061 508.438 413 512c-4.374.269-8.734.279-13.116.267l-3.873.014c-3.519.012-7.037.012-10.556.01-3.806 0-7.613.01-11.42.02q-11.17.023-22.343.023-9.09.001-18.181.012-25.823.026-51.644.025h-5.62c-15.021-.001-30.042.018-45.063.046q-23.184.043-46.367.04c-8.665 0-17.329.005-25.993.027q-11.07.029-22.14.009c-3.757-.006-7.514-.007-11.271.01-32.46.143-61.321-5.588-86.413-27.503l-2.066-1.668C16.357 466.379 3.562 439.061 0 413c-.269-4.374-.279-8.734-.267-13.116l-.014-3.873c-.012-3.519-.012-7.037-.01-10.556 0-3.806-.01-7.613-.02-11.42q-.023-11.17-.023-22.343-.002-9.09-.012-18.181-.026-25.823-.025-51.644v-5.62c.001-15.021-.018-30.042-.046-45.063Q-.46 208-.457 184.817c0-8.665-.005-17.329-.027-25.993q-.028-11.07-.009-22.14c.006-3.757.007-7.514-.01-11.271C-.647 92.953 5.084 64.092 27 39l1.668-2.066C48.57 12.777 81.386-.348 112.116-.267M83.75 20.688c-.744.26-1.488.522-2.254.791-24.96 9.08-45.134 27.537-56.475 51.46-7.162 15.967-9.18 31.933-9.155 49.317l-.007 3.593q-.007 4.89-.004 9.78c0 3.529-.006 7.057-.01 10.586q-.012 10.352-.012 20.705 0 8.423-.006 16.847a79937 79937 0 0 0-.012 47.856v5.206q-.002 20.88-.023 41.76-.023 21.486-.02 42.97.001 12.045-.014 24.088a8820 8820 0 0 0-.005 20.514q.007 5.222-.005 10.444c-.312 26.434-.312 26.434 5.377 52.083l.924 2.669C26.324 443.234 32.56 453.573 41 463l2.422 2.707c18.23 19.282 43.097 29.54 69.479 30.386 3.119.038 6.236.045 9.355.04l3.593.008q4.89.007 9.78.004c3.529 0 7.057.006 10.586.01q10.352.012 20.705.012 8.423 0 16.847.006 23.928.013 47.856.012h5.206q20.88.002 41.76.023 21.486.023 42.97.02 12.045-.001 24.088.014 10.257.015 20.514.005 5.222-.007 10.444.005c26.434.312 26.434.312 52.082-5.377l2.67-.924C443.234 485.676 453.573 479.44 463 471l2.707-2.422c13.346-12.618 21.35-27.529 26.543-45.015l.784-2.6c3.002-10.604 3.115-21.384 3.1-32.34l.007-3.595q.007-4.887.004-9.774.002-5.29.01-10.583.012-10.347.012-20.695 0-8.418.006-16.838.013-23.919.012-47.838v-5.203q.002-20.87.023-41.74.023-21.48.02-42.957-.001-12.04.014-24.077.014-10.252.005-20.503-.007-5.22.005-10.439c.473-25.695.473-25.695-4.94-50.631l-.791-2.254c-9.004-24.75-27.195-44.539-50.646-56.246-5.304-2.226-10.804-3.864-16.313-5.5l-2.6-.784c-10.603-3.002-21.383-3.115-32.338-3.1l-3.596-.007a4990 4990 0 0 0-9.774-.004c-3.527 0-7.055-.006-10.583-.01q-10.347-.012-20.695-.012-8.418 0-16.838-.006-23.919-.014-47.838-.012h-5.203q-20.87-.002-41.74-.023-21.48-.023-42.957-.02-12.04.001-24.077-.014-10.252-.014-20.503-.005-5.22.007-10.439-.005c-25.695-.473-25.695-.473-50.631 4.94"/><path d="m117.93 38.626 3.739-.012q5.078-.01 10.155.008c3.666.01 7.332 0 10.998-.005 7.165-.01 14.33-.003 21.495.009 8.352.014 16.704.012 25.057.01q22.357-.003 44.713.028 21.674.029 43.347.02a42750 42750 0 0 1 52.312.01l2.505.001q8.726.005 17.45.002 10.635-.004 21.268.017 5.422.013 10.843.007c3.922-.005 7.844.006 11.766.018l3.443-.011c6.261.034 11.943.588 17.979 2.272l3.117.86C429.603 45.568 438.932 51.053 448 59l2.086 1.797c12.89 11.922 21.675 29.94 23.188 47.36.105 3.261.122 6.51.1 9.773l.012 3.739q.01 5.078-.008 10.155c-.01 3.666 0 7.332.005 10.998.01 7.165.003 14.33-.009 21.495-.014 8.352-.012 16.704-.01 25.057q.003 22.356-.028 44.713-.029 21.674-.02 43.347a42750 42750 0 0 1-.01 52.312l-.001 2.505q-.006 8.726-.002 17.45.004 10.635-.017 21.268-.013 5.422-.007 10.843c.005 3.922-.006 7.844-.018 11.766l.011 3.443c-.034 6.261-.588 11.943-2.272 17.979l-.86 3.117c-3.709 11.486-9.194 20.815-17.14 29.883l-1.797 2.086C442.506 459.49 430.946 465.726 419 470l-2.906 1.066c-7.359 2.221-14.65 2.08-22.275 2.074l-3.715.01q-5.087.01-10.173.01-5.493.005-10.986.016-12.004.02-24.007.024l-15.003.012q-20.786.019-41.573.026h-5.377l-5.4.002h-2.706q-21.69.009-43.378.046-22.292.035-44.584.037-12.506-.001-25.012.025-10.651.023-21.303.012a2183 2183 0 0 0-10.857.011c-3.934.015-7.868.007-11.802-.004l-3.42.025c-10.765-.066-21.094-1.99-30.648-7.08l-2.033-1.054C62.43 454.93 49.369 439.598 42 419l-1.066-2.906c-2.221-7.359-2.08-14.65-2.074-22.275l-.01-3.715q-.01-5.087-.01-10.173c-.002-3.662-.01-7.324-.016-10.986q-.02-12.004-.024-24.007l-.012-15.003q-.019-20.786-.026-41.573v-5.377l-.002-5.4v-2.706q-.009-21.69-.046-43.378-.035-22.292-.037-44.584.001-12.506-.025-25.012-.023-10.651-.012-21.303c.004-3.619.003-7.238-.011-10.857-.015-3.934-.007-7.868.004-11.802l-.025-3.42c.066-10.765 1.99-21.094 7.08-30.648l1.054-2.033C56.717 63.092 72.053 49.367 92 42c8.7-2.534 16.9-3.433 25.93-3.374M69.258 77.93c-9.812 12.252-13.729 26.161-13.646 41.612l-.016 3.686c-.012 3.346-.01 6.691-.003 10.037.005 3.62-.008 7.241-.018 10.862-.017 7.08-.018 14.162-.013 21.243q.006 8.64-.002 17.279l-.003 2.49-.004 5.007c-.014 15.635-.009 31.27.003 46.905.01 14.28-.003 28.561-.027 42.842q-.037 22.033-.027 44.065.007 12.355-.017 24.71-.022 10.518.002 21.036c.009 3.573.011 7.145-.004 10.717-.092 23.071 1.654 40.883 18.275 58.4 12.704 12.35 28.3 17.66 45.784 17.567l3.686.016c3.346.012 6.691.01 10.037.003 3.62-.005 7.241.008 10.862.018 7.08.017 14.162.018 21.243.013q8.64-.006 17.279.002l2.49.003 5.007.004c15.635.014 31.27.009 46.905-.003 14.28-.01 28.561.003 42.842.027q22.033.037 44.065.027c8.237-.003 16.473 0 24.71.017q10.518.022 21.036-.002c3.573-.009 7.145-.011 10.717.004 23.071.092 40.883-1.654 58.4-18.275 12.35-12.704 17.66-28.3 17.567-45.784l.016-3.686c.012-3.346.01-6.691.003-10.037-.005-3.62.008-7.241.018-10.862.017-7.08.018-14.162.013-21.243q-.006-8.64.002-17.279l.003-2.49.004-5.007c.014-15.635.009-31.27-.003-46.905-.01-14.28.003-28.561.027-42.842q.037-22.033.027-44.065c-.003-8.237 0-16.473.017-24.71q.022-10.518-.002-21.036c-.009-3.573-.011-7.145.004-10.717.092-23.071-1.654-40.883-18.275-58.4-12.704-12.35-28.3-17.66-45.784-17.567l-3.686-.016c-3.346-.012-6.691-.01-10.037-.003-3.62.005-7.241-.008-10.862-.018-7.08-.017-14.162-.018-21.243-.013a10602 10602 0 0 1-19.768-.005l-5.008-.004c-15.635-.014-31.27-.009-46.905.003-14.28.01-28.561-.003-42.842-.027q-22.033-.037-44.065-.027c-8.237.003-16.473 0-24.71-.017q-10.518-.022-21.036.002c-3.573.009-7.145.011-10.717-.004-25.249-.101-44.519 2.728-62.321 22.447"/><path fill="#010000" d="m256.5 99.625 2.107.004c42.376.198 80.65 17.765 110.518 47.426 29.517 30.303 43.76 70.424 43.278 112.323-.776 43.328-19.8 81.362-50.356 111.552-28.714 26.092-66.488 40.566-105.235 40.382l-3.833-.017c-38.215-.491-71.603-15.105-100.479-39.545l-1.781-1.501c-4.349-3.742-8.072-7.118-9.781-12.749.062-3.5.062-3.5 2-6.437 3.728-2.512 6.721-2.86 11.062-2.063 2.95 2.055 2.95 2.055 5.688 4.875a563 563 0 0 0 3.117 3.047l1.596 1.564c23.708 22.448 56.525 34.665 88.9 34.754 2.1.01 4.199.04 6.299.072 32.21.252 62.707-13.355 87.4-33.312l2.531-2.04C361.81 347.619 371.992 333.368 379 319l1.48-2.934c2.988-6.152 5.485-12.417 7.707-18.878l.721-2.042c4.277-12.901 5.653-25.888 5.53-39.396l-.01-2.166c-.074-11.875-1.043-23.156-4.428-34.584l-.65-2.213C383.542 197.66 373.885 180.258 361 165l-2.004-2.379c-8.189-9.47-17.715-16.594-27.996-23.621l-2.457-1.691c-21.394-13.75-47.23-19.763-72.355-19.621l-2.141.007c-10.304.056-20.074.39-30.047 3.305l-2.42.7c-21.425 6.324-39.377 15.974-56.58 30.3l-1.93 1.555C150.884 163.575 140.856 177.886 134 192l-1.55 3.18c-15.42 32.523-18.788 70.012-7.019 104.314 2.82 7.818 6.223 15.18 10.284 22.428 1.513 3.625 1.678 6.185 1.285 10.078-2.115 2.703-3.89 4.427-6.937 6-3.336 0-5.253-1.241-8.063-3-1.598-2.456-2.807-4.614-4-7.25l-1.02-2.163A390 390 0 0 1 114 319l-.86-1.895c-3.399-7.548-5.852-15.163-7.89-23.168l-.602-2.358c-2.852-11.837-4.017-23.606-3.96-35.767l.014-3.827c.128-10.245 1.022-20 3.298-29.985l.488-2.2C110.035 195.6 121.402 172.511 138 154l1.378-1.573C169.032 118.632 211.58 99.48 256.5 99.625"/><path fill="#2E297C" d="m122.37 15.88 3.63-.003q4.94-.001 9.879.007 5.345.005 10.688.002 9.244 0 18.488.008 13.365.011 26.73.012 21.687.004 43.373.019a119630 119630 0 0 0 57.782.025q54.03.016 108.06.05v1l-3.663-.117c-14.306-.088-24.173 3.908-36.587 10.68L343 37l57 1v1l-1.877.003a113870 113870 0 0 0-123.446.26l-2.664.006q-21.32.051-42.643.081-21.891.033-43.782.099-13.5.04-26.998.05-9.267.01-18.535.047c-3.56.014-7.12.023-10.68.019-3.87-.004-7.741.015-11.612.036l-3.364-.014c-10.713.096-21.017 2.036-30.524 7.1l-2.031 1.053C63.452 57.518 50.224 72.434 43 92c-2.509 8.64-3.438 16.795-3.399 25.763l-.02 3.684a1763 1763 0 0 0-.014 10.002c0 3.61-.016 7.221-.03 10.832q-.034 9.363-.04 18.726c-.006 9.025-.029 18.05-.056 27.075q-.063 21.967-.095 43.936-.03 21.33-.084 42.659l-.006 2.66-.034 13.21C39.13 327.033 39.058 363.517 39 400h-1V222l-14 2h-7v177h-1a163859 163859 0 0 1-.111-126.018 60424 60424 0 0 0-.043-41.976q-.029-21.558-.034-43.118-.004-13.287-.028-26.574a8411 8411 0 0 1-.011-18.26q.003-5.255-.011-10.511c-.098-37.016-.098-37.016 4.926-50.793.26-.744.522-1.488.791-2.254 9.08-24.96 27.537-45.134 51.46-56.475 16.007-7.18 32.003-9.187 49.431-9.141"/><path fill="#FEA050" d="m38 222 .01 2.744q.122 33.104.278 66.207.076 16.01.134 32.018.05 13.96.12 27.92.04 7.386.061 14.772.02 6.964.064 13.93.014 2.542.017 5.087c.036 24.911 5.423 47.187 23.375 65.502 18.905 18.497 41.172 23.08 66.852 22.83l2.476-.029c3.586-.041 7.172-.07 10.758-.101l5.792-.051c12.47-.112 24.939-.142 37.409-.176 12.1-.033 24.197-.091 36.296-.232q14.466-.17 28.934-.155c5.083.004 10.161-.018 15.243-.112 26.616-.47 46.455 3.064 69.869 16.044 4.019 2.186 8.097 4.028 12.312 5.802v1a60221 60221 0 0 1-105.505.22l-2.244.003c-11.962.017-23.924.049-35.886.086q-18.435.056-36.87.067-11.36.008-22.72.056c-5.823.023-11.647.026-17.471.02q-3.566.003-7.13.025C90.48 495.66 66.807 487.814 45 467l-1.824-1.598C34.148 457.175 27.27 445.318 23 434l-1.512-3.642c-6.84-18.41-5.26-38.337-5.096-57.652.038-5.24.04-10.482.048-15.723.018-9.89.067-19.782.128-29.673.067-11.274.1-22.55.13-33.824.063-23.162.168-46.324.302-69.486q3.843-.505 7.688-1c.72-.095 1.442-.19 2.185-.29 3.737-.477 7.35-.83 11.127-.71"/><path fill="#010000" d="M316.469 174.797c9.74 7.515 17.855 15.87 24.531 26.203l1.293 1.809c3.08 4.474 5.212 9.337 7.332 14.316l.877 2.006c4.769 11.586 6.014 23.374 5.873 35.807l-.016 1.99c-.265 27.944-10.832 51.158-30.234 71.26-19.128 18.605-44.403 27.238-70.75 27.062l-3.523.023c-6.574-.014-12.525-.488-18.852-2.273l-3.852-1.008c-26.01-7.7-47.055-23.933-60.316-47.82-8.345-15.66-12.02-30.873-11.957-48.61l-.012-3.275c.012-9.394.609-17.863 3.637-26.787l.79-2.33c4.649-13.133 11.196-24.933 20.71-35.17l2.438-2.645c34.522-35.979 92.155-39.581 132.03-10.558M193.813 200.25C183.763 212.129 175.83 227.39 174 243l-.402 3.383c-2.18 23.457 4.62 45.185 19.59 63.367 15.01 17.386 35.6 27.004 58.312 29.125 22.924.963 43.69-6.691 61.043-21.605 16.035-14.812 26.17-35.39 27.457-57.27l.125-2.062c.656-22.293-8.085-43.709-23.125-59.938-14.77-15.164-34.793-24.753-56-26l-2.062-.125c-25.043-.737-48.17 10.366-65.125 28.375"/><path fill="#C9309A" d="m255.688 116.688 2.143.007c10.637.058 20.871.376 31.169 3.305l2.468.7c27.968 8.196 58.226 24.15 74.47 49.3l1.062 2-1.984.148c-4.837.397-9.608.9-14.391 1.727a802 802 0 0 1-17.562 2.813l-2.766.435c-9.863 1.455-9.863 1.455-14.375-1.47l-2.172-1.715c-22.447-16.259-50.812-20.143-77.832-16.36C214.6 161.548 194.003 174.68 180 191a278 278 0 0 0-3.187 5.5c-3.027 4.497-5.6 5.405-10.875 6.438-2.156.304-4.31.559-6.474.787-2.717.303-5.413.696-8.116 1.103-8.161 1.206-16.083 2.375-24.348 2.172 4.898-16.326 14.136-30.029 25-43l1.777-2.152c16.98-20.06 41.163-33.196 66.036-40.66l1.951-.59c11.222-3.202 22.292-3.976 33.923-3.91"/><path fill="#EB5944" d="M474 328c7.134.515 14.018 1.44 21 3q.212 15.493.31 30.986c.032 4.8.074 9.597.143 14.396.579 41.498.579 41.498-6.453 57.618l-.979 2.279c-9.873 22.584-27.787 41.925-50.751 51.565-4.532 1.602-9.1 3.038-13.707 4.406l-2.6.784c-10.644 3.014-21.458 3.115-32.454 3.086l-3.632.003q-4.935.001-9.872-.007-5.343-.005-10.686-.002-9.24 0-18.48-.008-13.359-.011-26.717-.012-21.678-.004-43.356-.019-21.048-.014-42.097-.02h-2.624l-13.035-.005q-54.006-.016-108.01-.05v-1l236-1c-37.222-17.735-37.222-17.735-75.422-21.305q-2.918.057-5.835.11l-2.964.067c-5.157.093-10.313.073-15.47.068-9.69.006-19.377.107-29.066.246-11.062.154-22.124.196-33.187.231-22.687.074-45.371.282-68.056.583v-1l1.85-.004a166059 166059 0 0 0 121.557-.313l2.62-.008q21.002-.059 42.002-.102 21.553-.047 43.105-.116 13.296-.043 26.592-.064 9.12-.016 18.242-.052 5.26-.022 10.52-.025 5.71-.008 11.42-.038l3.34.006c19.982-.145 38.688-8.396 52.928-22.335 8.061-8.236 13.548-17.287 17.824-27.949l.96-2.363c4.335-11.737 4.361-24.31 4.454-36.657q.028-2.392.059-4.787c.05-4.154.09-8.308.128-12.462.04-4.257.091-8.515.141-12.772q.142-12.48.258-24.959"/><path fill="#FC4C93" d="M367 172c3.214 2.44 4.981 5.546 7 9l1.957 3.117c12.724 21.07 19.435 44.374 19.359 69.008-.003 2.109.02 4.216.045 6.324.067 13.85-2.306 26.714-6.923 39.801l-.92 2.715c-1.31 3.816-2.65 7.452-4.518 11.035a552 552 0 0 1-19.437-2.437l-2.659-.37c-6.016-.855-11.958-1.94-17.904-3.193 1.23-3.973 2.74-7.69 4.513-11.45 10.553-22.699 11.224-51.032 2.756-74.584-5.383-14.44-13.791-25.718-24.269-36.966a302 302 0 0 1-5-6c7.113-1.524 14.223-2.64 21.438-3.562q2.904-.374 5.808-.754l2.553-.327c12.768-2.072 12.768-2.072 16.201-1.357"/><path fill="#523393" d="m178.13 16.519 2.647-.01a887 887 0 0 1 8.706.037q3.135.001 6.27-.002c5.656-.001 11.312.022 16.969.05 5.917.025 11.835.028 17.753.033 11.198.012 22.396.045 33.594.085 12.752.045 25.504.067 38.257.087 26.224.041 52.45.112 78.674.201-26.895 20.913-53.841 23.578-86.863 22.825-5.901-.114-11.803-.123-17.705-.144-11.113-.056-22.224-.203-33.337-.385-12.677-.203-25.354-.3-38.033-.39A9371 9371 0 0 1 127 38c3.32-2.566 6.626-4.396 10.418-6.215l1.869-.9q1.953-.939 3.91-1.873 2.952-1.41 5.899-2.83C152.724 24.44 156.354 22.704 160 21l2.001-1.023c5.547-2.71 9.998-3.547 16.13-3.458"/><path fill="#010000" d="M418.43 83.438C426.61 89.168 431.767 97.312 434 107c1.087 11.58-.343 21.155-7.062 30.75-6.536 7.829-15.37 12.633-25.516 13.586-11.604.123-20.405-1.794-29.418-9.356-7.858-7.766-11.1-16.463-11.442-27.355.265-11.032 3.636-19.73 11.438-27.625 13.453-11.24 31.308-12.51 46.43-3.562"/><path fill="#E45261" d="m38 222 .01 2.744q.122 33.104.278 66.207.076 16.01.134 32.018.05 13.96.12 27.92.04 7.386.061 14.772.02 6.964.064 13.93.014 2.542.017 5.087c.019 12.76.444 25.092 5.504 37.01A145 145 0 0 1 47 429l-1 2-2.048-1.253q-4.6-2.813-9.202-5.622l-3.223-1.973-3.105-1.894-2.857-1.746A86 86 0 0 0 19 415l-1 3c-1.044-4.27-1.138-8.407-1.12-12.776l-.003-2.352q0-3.895.01-7.79l-.001-5.588q.001-7.582.013-15.166.007-7.925.008-15.85.005-15.008.021-30.015.016-17.085.022-34.172.016-35.145.05-70.291 3.843-.505 7.688-1c.72-.095 1.442-.19 2.185-.29 3.737-.477 7.35-.83 11.127-.71"/><path fill="#FE4C94" d="M495 152v179c-16-2-16-2-21-3V154c16-2 16-2 21-2"/><path fill="#FAE192" d="M19 415c6 1.139 11.11 4.84 16.313 7.875l3.38 1.875c7.917 4.636 11.9 9.305 16.307 17.25 9.499 12.305 21.037 19.739 35 26l2.43 1.098c3.473 1.344 6.405 1.895 10.152 2.058 12.968.58 21.444 6.007 32.015 13.226 3.334 2.245 6.764 4.31 10.215 6.368A150 150 0 0 1 150 494v1c-6.97.103-13.94.172-20.91.22q-3.548.03-7.093.082c-13.591.195-26.042.154-38.997-4.302l-2.523-.856C66.803 485.079 55.497 477.019 45 467l-1.824-1.598C30.83 454.152 22.683 437.028 19 421c-.062-1.999-.08-4.002 0-6"/><path fill="#FB4C93" d="M172 201c-1.324 3.46-2.841 6.783-4.462 10.113-7.969 16.478-9.7 31.381-9.6 49.45q.008 2.396.013 4.79.017 5.824.049 11.647c-9.205-.527-18.218-1.489-27.312-3l-3.397-.54c-8.157-1.326-8.157-1.326-9.291-2.46-.221-4.359-.186-8.724-.185-13.088-.002-2.177-.02-4.354-.04-6.531-.048-11.585 1.338-22.35 4.725-33.443l.645-2.217c.982-3.29 1.937-5.845 3.855-8.721 2.838-.676 2.838-.676 6.441-1.098l3.96-.49 4.161-.475c9.926-1.173 20.549-4.444 30.438-3.937"/><path fill="#E25160" d="M474 328c7.134.515 14.018 1.44 21 3q.212 15.493.31 30.986c.032 4.8.074 9.597.143 14.396.579 41.525.579 41.525-6.453 57.618l-1.054 2.434c-5.744 13.056-5.744 13.056-8.755 14.334-2.765.293-4.552-.29-7.175-1.202l-2.832-.966-2.934-1.038-2.98-1.025q-3.64-1.254-7.27-2.537l1.355-2.02c12.345-18.82 15.892-36.767 16.06-59q.027-2.392.058-4.787c.05-4.154.09-8.308.128-12.462.04-4.257.091-8.515.141-12.772q.142-12.48.258-24.959"/><path fill="#FB5B49" d="M132 339c5.002.688 9.606 2.018 14.395 3.555l2.46.78q3.98 1.264 7.958 2.54l5.544 1.766a2689 2689 0 0 1 38.448 12.617c7.316 2.456 14.644 4.867 22.007 7.18 10.628 3.338 21.184 6.882 31.747 10.418 11.445 3.83 22.906 7.59 34.441 11.144-5.786 5.786-19.178 5.34-27.07 5.371a539 539 0 0 1-4.074-.035c-2.053-.024-4.105-.02-6.159-.014-10.968-.022-21.382-1.33-31.885-4.51l-2.162-.653c-23.049-7.177-42.753-18.84-59.65-36.159-2.85-2.85-3.771-2.982-7.937-3.312-3.394.02-5.963.959-9.063 2.312q-1.976-2.4-3.937-4.812l-2.215-2.708C133 342 133 342 132 339"/><path fill="#8A3293" d="M302.387 16.512q3.406.014 6.813.021c5.947.02 11.892.068 17.839.124 6.08.051 12.16.074 18.24.099 11.907.053 23.814.139 35.721.244-28.554 22.03-56.65 23.418-91.61 22.236-6.155-.188-12.311-.267-18.468-.357-11.978-.19-23.95-.496-35.922-.879 3.303-2.563 6.514-4.265 10.348-5.96l1.854-.827q2.928-1.3 5.86-2.588 2.894-1.282 5.786-2.567c4.929-2.186 4.929-2.186 7.162-3.129 2.05-.908 2.05-.908 4.07-2.226 9.923-5.651 21.26-4.325 32.307-4.191"/><path fill="#893293" d="M38 127v95c-14 2-14 2-21 2v-88c18-9 18-9 21-9"/><path fill="#593074" d="M50 75c-1.156 3.887-2.672 7.426-4.437 11.063-4.691 10.259-6.01 20.514-5.962 31.7l-.02 3.684q-.02 5.001-.014 10.002c0 3.61-.016 7.221-.03 10.832q-.034 9.363-.04 18.726c-.006 9.025-.029 18.05-.056 27.075q-.063 21.967-.095 43.936-.03 21.33-.084 42.659l-.006 2.66-.034 13.21C39.13 327.033 39.058 363.517 39 400h-1V127l-20 9-1 265h-1a163859 163859 0 0 1-.11-123.395l-.001-2.623q-.016-20.988-.043-41.976-.029-21.558-.034-43.118-.004-13.287-.028-26.574-.015-9.13-.011-18.26.003-5.255-.011-10.511c-.1-37.954-.1-37.954 4.238-46.543 2.658-1.761 2.658-1.761 5.996-3.332l1.786-.853a336 336 0 0 1 3.74-1.746c1.913-.88 3.814-1.784 5.714-2.692C46.518 75 46.518 75 50 75"/><path fill="#FCA04F" d="m17 346 21 9 .148 9.387q.083 4.563.17 9.125.056 3.14.104 6.281c.134 21.41.134 21.41 5.766 41.894A145 145 0 0 1 47 429l-1 2-2.048-1.253q-4.6-2.813-9.202-5.622l-3.223-1.973-3.105-1.894-2.857-1.746A86 86 0 0 0 19 415l-1 3c-.94-3.966-1.121-7.647-1.114-11.718v-1.983q.002-3.222.016-6.444l.005-4.485q.006-5.886.024-11.772.014-6.013.02-12.026.016-11.786.049-23.572"/><path fill="#C9309A" d="M405.688 96c5.094 3.076 9.404 7.277 11.312 13 .57 6.272.324 11.495-3 17-4.412 4.675-7.877 7.646-14.367 8.203-6.9.13-10.92-.931-16.32-5.453-4.553-5.413-5.859-10.468-5.586-17.398.76-6.543 4.58-9.855 9.336-13.934 5.337-3.906 12.565-3.061 18.625-1.418"/><path fill="#FE5D4A" d="M17 301c17 5 17 5 21 7v47c-9-3-9-3-21-9z"/><path fill="#FE4C94" d="M38 222v36c-7 0-7 0-21-3v-31l7.688-1 2.393-.316 1.93-.246 1.953-.254C33.3 221.973 35.654 222 38 222"/><path fill="#CA319B" d="M38 188v34c-14 2-14 2-21 2v-27l9.375-4.5 2.95-1.424 2.323-1.107 2.38-1.143C36 188 36 188 38 188"/></svg>